<svg width="16" height="16" viewBox="0 0 16 16" xmlns="http://www.w3.org/2000/svg">
<path d="m4.5587 0.60941c-0.42262 0-0.76172 0.34105-0.76172 0.76367v0.50781c0 0.10285 0.020058 0.19969 0.056641 0.28906h-1.1934c-0.42262 0-0.76172 0.33909-0.76172 0.76172v0.92188c-0.040428-0.00657-0.076799-0.023438-0.11914-0.023438h-0.50781c-0.42262 0-0.76367 0.34105-0.76367 0.76367v0.37305c0 0.42262 0.34105 0.76172 0.76367 0.76172h0.50781c0.042396 0 0.078663-0.016851 0.11914-0.023437v4.4531c-0.040428-0.0066-0.076799-0.02344-0.11914-0.02344h-0.50781c-0.42262 0-0.76367 0.34105-0.76367 0.76367v0.37305c0 0.42262 0.34105 0.76172 0.76367 0.76172h0.50781c0.042396 0 0.078663-0.01685 0.11914-0.02344v1.125c0 0.42262 0.33909 0.76367 0.76172 0.76367h1.1367v0.45703c0 0.42262 0.33909 0.76367 0.76172 0.76367h0.37305c0.42262 0 0.76367-0.34105 0.76367-0.76367v-0.45703h4.4063v0.45703c0 0.42262 0.33909 0.76367 0.76172 0.76367h0.37305c0.42262 0 0.76367-0.34105 0.76367-0.76367v-0.45703h1.2695c0.42262 0 0.76367-0.34105 0.76367-0.76367v-1.1113c0.01774 0.0012 0.03272 0.0098 0.05078 0.0098h0.50781c0.42262 0 0.76367-0.33909 0.76367-0.76172v-0.37305c0-0.42262-0.34105-0.76367-0.76367-0.76367h-0.50781c-0.01803 0-0.03307 0.0085-0.05078 0.0098v-4.4258c0.01774 0.00122 0.03272 0.00977 0.05078 0.00977h0.50781c0.42262 0 0.76367-0.33909 0.76367-0.76172v-0.37305c0-0.42262-0.34105-0.76367-0.76367-0.76367h-0.50781c-0.01803 0-0.03307 0.00855-0.05078 0.00977v-0.90821c0-0.42262-0.34105-0.76172-0.76367-0.76172h-1.3281c0.03658-0.089375 0.05859-0.18621 0.05859-0.28906v-0.50781c0-0.42262-0.34105-0.76367-0.76367-0.76367h-0.37305c-0.42262 0-0.76172 0.34105-0.76172 0.76367v0.50781c0 0.10285 0.02006 0.19969 0.05664 0.28906h-4.5215c0.036585-0.089375 0.058594-0.18621 0.058594-0.28906v-0.50781c0-0.42262-0.34105-0.76367-0.76367-0.76367zm3.2383 2.3574a3.2797 3.6441 0 0 1 3.2129 2.9395 2.1864 2.1864 0 0 1 1.8887 2.1621 2.1864 2.1864 0 0 1-2.1875 2.1855h-5.8301a2.1864 2.1864 0 0 1-2.1855-2.1855 2.1864 2.1864 0 0 1 1.8848-2.1641 3.2797 3.6441 0 0 1 3.2168-2.9375zm-2.916 8.0156a0.72881 0.72881 0 0 1 0.72852 0.72852 0.72881 0.72881 0 0 1-0.72852 0.73047 0.72881 0.72881 0 0 1-0.72852-0.73047 0.72881 0.72881 0 0 1 0.72852-0.72852zm5.8301 0a0.72881 0.72881 0 0 1 0.73047 0.72852 0.72881 0.72881 0 0 1-0.73047 0.73047 0.72881 0.72881 0 0 1-0.72852-0.73047 0.72881 0.72881 0 0 1 0.72852-0.72852zm-2.9141 0.72852a0.72881 0.72881 0 0 1 0.72852 0.73047 0.72881 0.72881 0 0 1-0.72852 0.72852 0.72881 0.72881 0 0 1-0.72852-0.72852 0.72881 0.72881 0 0 1 0.72852-0.73047z" fill="#a3b6f3" fill-opacity=".99216"/>
</svg>
