<svg width="16" height="16" viewBox="0 0 16 16" xmlns="http://www.w3.org/2000/svg">
<g transform="translate(-2.5625 -18.438)" fill="#fc9c9c">
<path d="m13.107 19.383a2.4664 2.4663 0 0 0-1.7812 0.7207 2.4664 2.4663 0 0 0-0.18555 0.21289l1.332 2.4336-1.6055 0.60352-3.4141 3.4141a2.4664 2.4663 0 0 0-3.1016 0.3125 2.4664 2.4663 0 0 0 0 3.4883 2.4664 2.4663 0 0 0 1.3965 0.69531 2.4664 2.4663 0 0 0 0.69531 1.3965 2.4664 2.4663 0 0 0 3.4883 0 2.4664 2.4663 0 0 0 0.31445-3.1035l3.5605-3.5605a2.4664 2.4663 0 0 0 3.0996-0.31055 2.4664 2.4663 0 0 0 0-3.4883 2.4664 2.4663 0 0 0-1.3965-0.69727 2.4664 2.4663 0 0 0-0.69531-1.3965 2.4664 2.4663 0 0 0-1.707-0.7207z"/>
<path d="m3.7211 21.208 0.96083 4.8264 1.3962-0.52449z"/>
<path d="m6.4843 19.465 0.96083 4.8264 1.3962-0.52449z"/>
<path d="m9.6965 19.337 0.71083 3.5139 1.3962-0.52449z"/>
</g>
</svg>
